<svg height="3406" width="720" xmlns="http://www.w3.org/2000/svg">
<rect height="3406" fill="#555" width="720"></rect>
<text fill="#7f7" font-family="Courier New" font-size="12" xml:space="preserve">
<tspan x="10" y="26">23 megabytes installed</tspan>
<tspan x="10" y="42"></tspan>
<tspan x="10" y="58">node_modules</tspan>
<tspan x="10" y="74">└─┬ gulp-vueify@0.0.3 </tspan>
<tspan x="10" y="90">  ├─┬ gulp-util@3.0.8 </tspan>
<tspan x="10" y="106">  │ ├── array-differ@1.0.0 </tspan>
<tspan x="10" y="122">  │ ├── array-uniq@1.0.3 </tspan>
<tspan x="10" y="138">  │ ├── beeper@1.1.1 </tspan>
<tspan x="10" y="154">  │ ├─┬ chalk@1.1.3 </tspan>
<tspan x="10" y="170">  │ │ ├── ansi-styles@2.2.1 </tspan>
<tspan x="10" y="186">  │ │ ├── escape-string-regexp@1.0.5 </tspan>
<tspan x="10" y="202">  │ │ ├─┬ has-ansi@2.0.0 </tspan>
<tspan x="10" y="218">  │ │ │ └── ansi-regex@2.1.1 </tspan>
<tspan x="10" y="234">  │ │ ├── strip-ansi@3.0.1 </tspan>
<tspan x="10" y="250">  │ │ └── supports-color@2.0.0 </tspan>
<tspan x="10" y="266">  │ ├── dateformat@2.0.0 </tspan>
<tspan x="10" y="282">  │ ├─┬ fancy-log@1.3.0 </tspan>
<tspan x="10" y="298">  │ │ └── time-stamp@1.0.1 </tspan>
<tspan x="10" y="314">  │ ├─┬ gulplog@1.0.0 </tspan>
<tspan x="10" y="330">  │ │ └── glogg@1.0.0 </tspan>
<tspan x="10" y="346">  │ ├─┬ has-gulplog@0.1.0 </tspan>
<tspan x="10" y="362">  │ │ └── sparkles@1.0.0 </tspan>
<tspan x="10" y="378">  │ ├── lodash._reescape@3.0.0 </tspan>
<tspan x="10" y="394">  │ ├── lodash._reevaluate@3.0.0 </tspan>
<tspan x="10" y="410">  │ ├── lodash._reinterpolate@3.0.0 </tspan>
<tspan x="10" y="426">  │ ├─┬ lodash.template@3.6.2 </tspan>
<tspan x="10" y="442">  │ │ ├── lodash._basecopy@3.0.1 </tspan>
<tspan x="10" y="458">  │ │ ├── lodash._basetostring@3.0.1 </tspan>
<tspan x="10" y="474">  │ │ ├── lodash._basevalues@3.0.0 </tspan>
<tspan x="10" y="490">  │ │ ├── lodash._isiterateecall@3.0.9 </tspan>
<tspan x="10" y="506">  │ │ ├─┬ lodash.escape@3.2.0 </tspan>
<tspan x="10" y="522">  │ │ │ └── lodash._root@3.0.1 </tspan>
<tspan x="10" y="538">  │ │ ├─┬ lodash.keys@3.1.2 </tspan>
<tspan x="10" y="554">  │ │ │ ├── lodash._getnative@3.9.1 </tspan>
<tspan x="10" y="570">  │ │ │ ├── lodash.isarguments@3.1.0 </tspan>
<tspan x="10" y="586">  │ │ │ └── lodash.isarray@3.0.4 </tspan>
<tspan x="10" y="602">  │ │ ├── lodash.restparam@3.6.1 </tspan>
<tspan x="10" y="618">  │ │ └── lodash.templatesettings@3.1.1 </tspan>
<tspan x="10" y="634">  │ ├── minimist@1.2.0 </tspan>
<tspan x="10" y="650">  │ ├─┬ multipipe@0.1.2 </tspan>
<tspan x="10" y="666">  │ │ └─┬ duplexer2@0.0.2 </tspan>
<tspan x="10" y="682">  │ │   └─┬ readable-stream@1.1.14 </tspan>
<tspan x="10" y="698">  │ │     ├── isarray@0.0.1 </tspan>
<tspan x="10" y="714">  │ │     └── string_decoder@0.10.31 </tspan>
<tspan x="10" y="730">  │ ├── object-assign@3.0.0 </tspan>
<tspan x="10" y="746">  │ ├── replace-ext@0.0.1 </tspan>
<tspan x="10" y="762">  │ └─┬ vinyl@0.5.3 </tspan>
<tspan x="10" y="778">  │   ├── clone@1.0.2 </tspan>
<tspan x="10" y="794">  │   └── clone-stats@0.0.1 </tspan>
<tspan x="10" y="810">  ├─┬ through2@2.0.3 </tspan>
<tspan x="10" y="826">  │ ├─┬ readable-stream@2.2.9 </tspan>
<tspan x="10" y="842">  │ │ ├── buffer-shims@1.0.0 </tspan>
<tspan x="10" y="858">  │ │ ├── core-util-is@1.0.2 </tspan>
<tspan x="10" y="874">  │ │ ├── inherits@2.0.3 </tspan>
<tspan x="10" y="890">  │ │ ├── isarray@1.0.0 </tspan>
<tspan x="10" y="906">  │ │ ├── process-nextick-args@1.0.7 </tspan>
<tspan x="10" y="922">  │ │ ├── string_decoder@1.0.0 </tspan>
<tspan x="10" y="938">  │ │ └── util-deprecate@1.0.2 </tspan>
<tspan x="10" y="954">  │ └── xtend@4.0.1 </tspan>
<tspan x="10" y="970">  └─┬ vueify@8.7.0 </tspan>
<tspan x="10" y="986">    ├─┬ autoprefixer@6.7.7 </tspan>
<tspan x="10" y="1002">    │ ├─┬ browserslist@1.7.7 </tspan>
<tspan x="10" y="1018">    │ │ └── electron-to-chromium@1.3.5 </tspan>
<tspan x="10" y="1034">    │ ├── caniuse-db@1.0.30000657 </tspan>
<tspan x="10" y="1050">    │ ├── normalize-range@0.1.2 </tspan>
<tspan x="10" y="1066">    │ ├── num2fraction@1.2.2 </tspan>
<tspan x="10" y="1082">    │ └── postcss-value-parser@3.3.0 </tspan>
<tspan x="10" y="1098">    ├─┬ cssnano@3.10.0 </tspan>
<tspan x="10" y="1114">    │ ├── decamelize@1.2.0 </tspan>
<tspan x="10" y="1130">    │ ├── defined@1.0.0 </tspan>
<tspan x="10" y="1146">    │ ├─┬ has@1.0.1 </tspan>
<tspan x="10" y="1162">    │ │ └── function-bind@1.1.0 </tspan>
<tspan x="10" y="1178">    │ ├── object-assign@4.1.1 </tspan>
<tspan x="10" y="1194">    │ ├─┬ postcss-calc@5.3.1 </tspan>
<tspan x="10" y="1210">    │ │ ├── postcss-message-helpers@2.0.0 </tspan>
<tspan x="10" y="1226">    │ │ └─┬ reduce-css-calc@1.3.0 </tspan>
<tspan x="10" y="1242">    │ │   ├── balanced-match@0.4.2 </tspan>
<tspan x="10" y="1258">    │ │   ├── math-expression-evaluator@1.2.16 </tspan>
<tspan x="10" y="1274">    │ │   └── reduce-function-call@1.0.2 </tspan>
<tspan x="10" y="1290">    │ ├─┬ postcss-colormin@2.2.2 </tspan>
<tspan x="10" y="1306">    │ │ └─┬ colormin@1.1.2 </tspan>
<tspan x="10" y="1322">    │ │   ├─┬ color@0.11.4 </tspan>
<tspan x="10" y="1338">    │ │   │ ├─┬ color-convert@1.9.0 </tspan>
<tspan x="10" y="1354">    │ │   │ │ └── color-name@1.1.2 </tspan>
<tspan x="10" y="1370">    │ │   │ └── color-string@0.3.0 </tspan>
<tspan x="10" y="1386">    │ │   └── css-color-names@0.0.4 </tspan>
<tspan x="10" y="1402">    │ ├── postcss-convert-values@2.6.1 </tspan>
<tspan x="10" y="1418">    │ ├── postcss-discard-comments@2.0.4 </tspan>
<tspan x="10" y="1434">    │ ├── postcss-discard-duplicates@2.1.0 </tspan>
<tspan x="10" y="1450">    │ ├── postcss-discard-empty@2.1.0 </tspan>
<tspan x="10" y="1466">    │ ├── postcss-discard-overridden@0.1.1 </tspan>
<tspan x="10" y="1482">    │ ├─┬ postcss-discard-unused@2.2.3 </tspan>
<tspan x="10" y="1498">    │ │ └── uniqs@2.0.0 </tspan>
<tspan x="10" y="1514">    │ ├─┬ postcss-filter-plugins@2.0.2 </tspan>
<tspan x="10" y="1530">    │ │ └─┬ uniqid@4.1.1 </tspan>
<tspan x="10" y="1546">    │ │   └── macaddress@0.2.8 </tspan>
<tspan x="10" y="1562">    │ ├── postcss-merge-idents@2.1.7 </tspan>
<tspan x="10" y="1578">    │ ├── postcss-merge-longhand@2.0.2 </tspan>
<tspan x="10" y="1594">    │ ├─┬ postcss-merge-rules@2.1.2 </tspan>
<tspan x="10" y="1610">    │ │ ├─┬ caniuse-api@1.6.1 </tspan>
<tspan x="10" y="1626">    │ │ │ ├── lodash.memoize@4.1.2 </tspan>
<tspan x="10" y="1642">    │ │ │ └── lodash.uniq@4.5.0 </tspan>
<tspan x="10" y="1658">    │ │ ├── postcss-selector-parser@2.2.3 </tspan>
<tspan x="10" y="1674">    │ │ └── vendors@1.0.1 </tspan>
<tspan x="10" y="1690">    │ ├─┬ postcss-minify-font-values@1.0.5 </tspan>
<tspan x="10" y="1706">    │ │ └── object-assign@4.1.1 </tspan>
<tspan x="10" y="1722">    │ ├── postcss-minify-gradients@1.0.5 </tspan>
<tspan x="10" y="1738">    │ ├─┬ postcss-minify-params@1.2.2 </tspan>
<tspan x="10" y="1754">    │ │ └── alphanum-sort@1.0.2 </tspan>
<tspan x="10" y="1770">    │ ├─┬ postcss-minify-selectors@2.1.1 </tspan>
<tspan x="10" y="1786">    │ │ └── postcss-selector-parser@2.2.3 </tspan>
<tspan x="10" y="1802">    │ ├── postcss-normalize-charset@1.1.1 </tspan>
<tspan x="10" y="1818">    │ ├─┬ postcss-normalize-url@3.0.8 </tspan>
<tspan x="10" y="1834">    │ │ ├── is-absolute-url@2.1.0 </tspan>
<tspan x="10" y="1850">    │ │ └─┬ normalize-url@1.9.1 </tspan>
<tspan x="10" y="1866">    │ │   ├── object-assign@4.1.1 </tspan>
<tspan x="10" y="1882">    │ │   ├── prepend-http@1.0.4 </tspan>
<tspan x="10" y="1898">    │ │   ├─┬ query-string@4.3.4 </tspan>
<tspan x="10" y="1914">    │ │   │ ├── object-assign@4.1.1 </tspan>
<tspan x="10" y="1930">    │ │   │ └── strict-uri-encode@1.1.0 </tspan>
<tspan x="10" y="1946">    │ │   └─┬ sort-keys@1.1.2 </tspan>
<tspan x="10" y="1962">    │ │     └── is-plain-obj@1.1.0 </tspan>
<tspan x="10" y="1978">    │ ├── postcss-ordered-values@2.2.3 </tspan>
<tspan x="10" y="1994">    │ ├── postcss-reduce-idents@2.4.0 </tspan>
<tspan x="10" y="2010">    │ ├── postcss-reduce-initial@1.0.1 </tspan>
<tspan x="10" y="2026">    │ ├── postcss-reduce-transforms@1.0.4 </tspan>
<tspan x="10" y="2042">    │ ├─┬ postcss-svgo@2.1.6 </tspan>
<tspan x="10" y="2058">    │ │ ├─┬ is-svg@2.1.0 </tspan>
<tspan x="10" y="2074">    │ │ │ └── html-comment-regex@1.1.1 </tspan>
<tspan x="10" y="2090">    │ │ └─┬ svgo@0.7.2 </tspan>
<tspan x="10" y="2106">    │ │   ├─┬ coa@1.0.1 </tspan>
<tspan x="10" y="2122">    │ │   │ └── q@1.5.0 </tspan>
<tspan x="10" y="2138">    │ │   ├── colors@1.1.2 </tspan>
<tspan x="10" y="2154">    │ │   ├─┬ csso@2.3.2 </tspan>
<tspan x="10" y="2170">    │ │   │ └── clap@1.1.3 </tspan>
<tspan x="10" y="2186">    │ │   ├─┬ js-yaml@3.7.0 </tspan>
<tspan x="10" y="2202">    │ │   │ ├─┬ argparse@1.0.9 </tspan>
<tspan x="10" y="2218">    │ │   │ │ └── sprintf-js@1.0.3 </tspan>
<tspan x="10" y="2234">    │ │   │ └── esprima@2.7.3 </tspan>
<tspan x="10" y="2250">    │ │   ├─┬ mkdirp@0.5.1 </tspan>
<tspan x="10" y="2266">    │ │   │ └── minimist@0.0.8 </tspan>
<tspan x="10" y="2282">    │ │   ├── sax@1.2.2 </tspan>
<tspan x="10" y="2298">    │ │   └── whet.extend@0.9.9 </tspan>
<tspan x="10" y="2314">    │ ├── postcss-unique-selectors@2.0.2 </tspan>
<tspan x="10" y="2330">    │ └── postcss-zindex@2.2.0 </tspan>
<tspan x="10" y="2346">    ├── de-indent@1.0.2 </tspan>
<tspan x="10" y="2362">    ├── es6-promise@3.3.1 </tspan>
<tspan x="10" y="2378">    ├── hash-sum@1.0.2 </tspan>
<tspan x="10" y="2394">    ├─┬ html-minifier@1.5.0 </tspan>
<tspan x="10" y="2410">    │ ├─┬ change-case@2.3.1 </tspan>
<tspan x="10" y="2426">    │ │ ├── camel-case@1.2.2 </tspan>
<tspan x="10" y="2442">    │ │ ├── constant-case@1.1.2 </tspan>
<tspan x="10" y="2458">    │ │ ├── dot-case@1.1.2 </tspan>
<tspan x="10" y="2474">    │ │ ├── is-lower-case@1.1.3 </tspan>
<tspan x="10" y="2490">    │ │ ├── is-upper-case@1.1.2 </tspan>
<tspan x="10" y="2506">    │ │ ├── lower-case@1.1.4 </tspan>
<tspan x="10" y="2522">    │ │ ├── lower-case-first@1.0.2 </tspan>
<tspan x="10" y="2538">    │ │ ├── param-case@1.1.2 </tspan>
<tspan x="10" y="2554">    │ │ ├── pascal-case@1.1.2 </tspan>
<tspan x="10" y="2570">    │ │ ├── path-case@1.1.2 </tspan>
<tspan x="10" y="2586">    │ │ ├── sentence-case@1.1.3 </tspan>
<tspan x="10" y="2602">    │ │ ├── snake-case@1.1.2 </tspan>
<tspan x="10" y="2618">    │ │ ├── swap-case@1.1.2 </tspan>
<tspan x="10" y="2634">    │ │ ├── title-case@1.1.2 </tspan>
<tspan x="10" y="2650">    │ │ ├── upper-case@1.1.3 </tspan>
<tspan x="10" y="2666">    │ │ └── upper-case-first@1.1.2 </tspan>
<tspan x="10" y="2682">    │ ├─┬ clean-css@3.4.25 </tspan>
<tspan x="10" y="2698">    │ │ ├── commander@2.8.1 </tspan>
<tspan x="10" y="2714">    │ │ └─┬ source-map@0.4.4 </tspan>
<tspan x="10" y="2730">    │ │   └── amdefine@1.0.1 </tspan>
<tspan x="10" y="2746">    │ ├─┬ commander@2.9.0 </tspan>
<tspan x="10" y="2762">    │ │ └── graceful-readlink@1.0.1 </tspan>
<tspan x="10" y="2778">    │ ├─┬ concat-stream@1.5.2 </tspan>
<tspan x="10" y="2794">    │ │ ├─┬ readable-stream@2.0.6 </tspan>
<tspan x="10" y="2810">    │ │ │ └── isarray@1.0.0 </tspan>
<tspan x="10" y="2826">    │ │ └── typedarray@0.0.6 </tspan>
<tspan x="10" y="2842">    │ ├── he@1.0.0 </tspan>
<tspan x="10" y="2858">    │ ├─┬ ncname@1.0.0 </tspan>
<tspan x="10" y="2874">    │ │ └── xml-char-classes@1.0.0 </tspan>
<tspan x="10" y="2890">    │ ├── relateurl@0.2.7 </tspan>
<tspan x="10" y="2906">    │ └─┬ uglify-js@2.6.4 </tspan>
<tspan x="10" y="2922">    │   ├── async@0.2.10 </tspan>
<tspan x="10" y="2938">    │   ├── uglify-to-browserify@1.0.2 </tspan>
<tspan x="10" y="2954">    │   └─┬ yargs@3.10.0 </tspan>
<tspan x="10" y="2970">    │     ├── camelcase@1.2.1 </tspan>
<tspan x="10" y="2986">    │     ├─┬ cliui@2.1.0 </tspan>
<tspan x="10" y="3002">    │     │ ├─┬ center-align@0.1.3 </tspan>
<tspan x="10" y="3018">    │     │ │ ├─┬ align-text@0.1.4 </tspan>
<tspan x="10" y="3034">    │     │ │ │ ├─┬ kind-of@3.1.0 </tspan>
<tspan x="10" y="3050">    │     │ │ │ │ └── is-buffer@1.1.5 </tspan>
<tspan x="10" y="3066">    │     │ │ │ ├── longest@1.0.1 </tspan>
<tspan x="10" y="3082">    │     │ │ │ └── repeat-string@1.6.1 </tspan>
<tspan x="10" y="3098">    │     │ │ └── lazy-cache@1.0.4 </tspan>
<tspan x="10" y="3114">    │     │ ├── right-align@0.1.3 </tspan>
<tspan x="10" y="3130">    │     │ └── wordwrap@0.0.2 </tspan>
<tspan x="10" y="3146">    │     └── window-size@0.1.0 </tspan>
<tspan x="10" y="3162">    ├── lru-cache@2.7.3 </tspan>
<tspan x="10" y="3178">    ├── object-assign@4.1.1 </tspan>
<tspan x="10" y="3194">    ├── parse5@2.2.3 </tspan>
<tspan x="10" y="3210">    ├─┬ postcss@5.2.17 </tspan>
<tspan x="10" y="3226">    │ ├── js-base64@2.1.9 </tspan>
<tspan x="10" y="3242">    │ ├── source-map@0.5.6 </tspan>
<tspan x="10" y="3258">    │ └─┬ supports-color@3.2.3 </tspan>
<tspan x="10" y="3274">    │   └── has-flag@1.0.0 </tspan>
<tspan x="10" y="3290">    ├─┬ postcss-selector-parser@1.3.3 </tspan>
<tspan x="10" y="3306">    │ ├── flatten@1.0.2 </tspan>
<tspan x="10" y="3322">    │ ├── indexes-of@1.0.1 </tspan>
<tspan x="10" y="3338">    │ └── uniq@1.0.1 </tspan>
<tspan x="10" y="3354">    ├── through@2.3.8 </tspan>
<tspan x="10" y="3370">    ├── vue-hot-reload-api@1.3.3 </tspan>
<tspan x="10" y="3386">    └── vue-template-validator@1.1.5</tspan>
</text>
</svg>
